<svg width="56.6934" height="56.6934" xmlns="http://www.w3.org/2000/svg">

 <g>
  <title>background</title>
  <rect fill="none" id="canvas_background" height="402" width="582" y="-1" x="-1"/>
 </g>
 <g>
  <title>Layer 1</title>
  <path id="svg_9" d="m-17.125768,7.04953c0,-0.077007 -11.165974,2.926255 -11.165974,2.926255" opacity="0.5" fill-opacity="null" stroke-opacity="null" stroke-width="null" stroke="null" fill="null"/>
  <g stroke="null" id="svg_1">
   <path stroke="null" id="svg_2" d="m26.110132,23.534763c0.184205,-0.075357 0.435508,-0.113093 0.753681,-0.113093c0.100475,0 0.301426,0.008717 0.602853,0.025119c0.301426,0.016746 0.795201,0.058955 1.482128,0.125709l-2.713067,-7.83791c-0.703443,-1.992883 -1.247685,-3.294595 -1.632841,-3.906281c-0.385615,-0.611342 -0.803918,-0.916898 -1.256173,-0.916898c-0.351664,0 -0.636803,0.134312 -0.854156,0.401903c-0.217697,0.267935 -0.326545,0.627973 -0.326545,1.080229c0,0.770543 0.292709,2.11022 0.87916,4.019373c0.586107,1.909268 1.465382,4.413018 2.63771,7.511134c0.100705,-0.184206 0.242701,-0.313929 0.42725,-0.389286z"/>
   <path stroke="null" id="svg_3" d="m29.12474,33.645994c0.401902,-0.502379 0.824793,-0.958534 1.268675,-1.369039c0.443423,-0.410391 0.908179,-0.774672 1.394154,-1.09296c-0.720074,-0.033492 -1.402872,-0.108619 -2.04736,-0.225956c-0.644718,-0.116878 -1.260302,-0.284796 -1.846409,-0.502379c0.26759,0.536215 0.506277,1.071741 0.71606,1.607612c0.209209,0.536329 0.380568,1.063827 0.514879,1.582722z"/>
   <path stroke="null" id="svg_4" d="m38.218573,27.214973c-0.686926,-0.569018 -2.022241,-1.080229 -4.006746,-1.53237c-1.984505,-0.452141 -4.057099,-0.678326 -6.21755,-0.678326c-0.602853,0 -1.029874,0.100476 -1.281062,0.301427c-0.251303,0.200951 -0.376898,0.544358 -0.376898,1.029876c0,1.139184 0.636459,1.963635 1.909263,2.474387c1.27246,0.51121 3.332436,0.7663 6.179815,0.7663l1.029988,0c0.234443,0 0.422892,0.087974 0.565232,0.263806c0.141996,0.175833 0.238687,0.439639 0.288924,0.791304c-0.285139,0.267935 -0.870902,0.573721 -1.75855,0.916784c-0.887877,0.343292 -1.566202,0.682455 -2.034743,1.017374c-1.004984,0.737281 -1.812917,1.612085 -2.424257,2.625215c-0.611685,1.013704 -0.916896,1.972123 -0.916896,2.876405c0,0.552731 0.129494,1.21844 0.3894,1.997127c0.259676,0.778802 0.3894,1.260076 0.3894,1.444396l0,0.175833l-0.050238,0.22607c-0.737279,-0.050238 -1.318913,-0.481045 -1.745933,-1.293682c-0.427135,-0.812179 -0.640588,-1.896651 -0.640588,-3.253189l0,-0.225841c-0.134311,0.117222 -0.263805,0.201066 -0.3894,0.251304c-0.125594,0.050123 -0.263805,0.075357 -0.414519,0.075357c-0.150828,0 -0.293168,-0.012617 -0.427135,-0.03785c-0.134311,-0.02489 -0.285025,-0.06274 -0.45214,-0.112978c0.050238,0.184664 0.087973,0.364282 0.113092,0.540114c0.025119,0.175833 0.037621,0.314044 0.037621,0.414634c0,0.6196 -0.242816,1.151801 -0.728447,1.594995c-0.48609,0.443883 -1.063824,0.665709 -1.733317,0.665709c-1.055107,0 -2.12696,-0.514995 -3.215559,-1.544986c-1.088943,-1.029876 -1.632841,-2.038533 -1.632841,-3.027118c0,-0.184091 0.020875,-0.347536 0.06274,-0.489762c0.041521,-0.141997 0.113092,-0.263806 0.213568,-0.364282c0.234443,0.285025 0.560988,0.703445 0.979751,1.256176c1.105345,1.523882 2.126616,2.285823 3.064846,2.285823c0.317828,0 0.602853,-0.100361 0.854041,-0.301312c0.251189,-0.201066 0.376783,-0.410391 0.376783,-0.628088c0,-0.251189 -0.167459,-0.669494 -0.502377,-1.256061c-0.335377,-0.586223 -0.795545,-1.247344 -1.381652,-1.98451c-0.669951,-0.854273 -1.227154,-1.478117 -1.670577,-1.871533c-0.443767,-0.393301 -0.799904,-0.590238 -1.067609,-0.590238c-0.586566,0 -1.126564,0.313929 -1.620339,0.942017c-0.494119,0.627973 -0.741064,1.369039 -0.741064,2.223083c0,0.687158 0.171703,1.453342 0.514994,2.298784c0.342947,0.845671 0.841539,1.695585 1.494745,2.549629c0.988123,1.32316 2.214475,2.34019 3.680315,3.052008c1.465267,0.712391 3.085606,1.067612 4.860902,1.067612c3.265682,0 5.999854,-1.218211 8.202056,-3.654747c2.201973,-2.436766 3.303418,-5.488888 3.303418,-9.156711c0,-1.121635 -0.084074,-2.013529 -0.251303,-2.675338c-0.167574,-0.661695 -0.443881,-1.143198 -0.829152,-1.444625z"/>
   <path stroke="null" id="svg_5" d="m22.84445,32.56565c0.736935,0.98847 1.43189,1.758555 2.085095,2.311286c0.653205,0.552502 1.171984,0.828925 1.557599,0.828925c0.28468,0 0.543898,-0.12938 0.778685,-0.389286c0.234443,-0.259677 0.351664,-0.540114 0.351664,-0.841656c0,-0.317944 -0.230314,-1.058895 -0.690826,-2.223312c-0.460971,-1.164073 -1.034232,-2.307042 -1.720814,-3.429021c-0.502377,-0.837412 -0.996382,-1.469515 -1.482128,-1.896766c-0.48609,-0.426907 -0.946259,-0.640475 -1.381652,-0.640475c-0.351664,0 -0.741064,0.222285 -1.168199,0.665709c-0.427021,0.443883 -0.640588,0.858288 -0.640588,1.243559c0,0.401788 0.209439,1.004757 0.627972,1.808678c0.418418,0.80415 0.979751,1.658194 1.683194,2.562361z"/>
   <path stroke="null" id="svg_6" d="m28.321395,0.077006c-15.598587,0 -28.244388,12.643655 -28.244388,28.242168c0,15.598628 12.645801,28.244462 28.244388,28.244462c15.597326,0 28.243241,-12.645834 28.243241,-28.244462c0.000115,-15.598513 -12.645916,-28.242168 -28.243241,-28.242168zm8.930044,41.720827c-2.53735,2.687726 -5.782042,4.031531 -9.734421,4.031531c-1.557484,0 -3.068975,-0.280552 -4.534357,-0.841427c-1.465841,-0.561219 -2.725684,-1.34415 -3.780676,-2.348907c-1.20582,-1.105004 -2.110214,-2.273091 -2.713067,-3.503919c-0.602968,-1.230942 -0.904394,-2.491018 -0.904394,-3.780916c0,-1.440152 0.309799,-2.553529 0.929513,-3.340933c0.619255,-0.787175 1.599005,-1.322816 2.939137,-1.607956c-0.251074,-0.586108 -0.435738,-1.080229 -0.552615,-1.482132c-0.117221,-0.401788 -0.175832,-0.711703 -0.175832,-0.929401c0,-0.753568 0.397773,-1.523653 1.193204,-2.311171c0.795087,-0.787175 1.544982,-1.180705 2.248425,-1.180705c0.301426,0 0.619255,0.054482 0.954517,0.16333c0.335033,0.109193 0.719845,0.288925 1.155583,0.540114c-1.289894,-3.650962 -2.227436,-6.468756 -2.813543,-8.453381c-0.586566,-1.98451 -0.87916,-3.353664 -0.87916,-4.107232c0,-1.038364 0.26759,-1.862815 0.803918,-2.474387c0.535869,-0.611342 1.264431,-0.916898 2.185456,-0.916898c1.574001,0 3.567223,3.516995 5.978864,10.550984c0.418304,1.205823 0.736935,2.135224 0.954632,2.788546c0.184205,-0.518895 0.443537,-1.256061 0.7788,-2.210696c2.411641,-6.967006 4.487904,-10.450394 6.230053,-10.450394c0.854156,0 1.536265,0.288925 2.04736,0.866661c0.51075,0.57785 0.766183,1.352752 0.766183,2.323673c0,0.737281 -0.280551,2.085101 -0.841539,4.044492c-0.561332,1.959506 -1.411015,4.521867 -2.549737,7.687082c1.507132,0.285025 2.570727,0.921142 3.190326,1.909154c0.619369,0.98847 0.929513,2.545959 0.929513,4.672695c-0.000344,4.220095 -1.268904,7.674235 -3.806139,10.362191z"/>
   <path stroke="null" id="svg_7" d="m37.753817,16.877672c0.627972,-1.98451 0.942015,-3.202951 0.942015,-3.655092c0,-0.485747 -0.104605,-0.862531 -0.313928,-1.130467c-0.209783,-0.267706 -0.498592,-0.401903 -0.866658,-0.401903c-0.469,0 -0.946259,0.389286 -1.43189,1.168088c-0.48609,0.778802 -1.021615,2.030963 -1.607722,3.755682l-2.512116,7.26006l3.165321,0.552731c1.121517,-3.048337 1.996893,-5.564475 2.624979,-7.5491z"/>
  </g>
 </g>
</svg>